<svg contentScriptType="text/ecmascript" zoomAndPan="magnify" xmlns:xlink="http://www.w3.org/1999/xlink" contentStyleType="text/css" version="1.1" width="1920" xmlns:sodipodi="http://sodipodi.sourceforge.net/DTD/sodipodi-0.dtd" xmlns:inkscape="http://www.inkscape.org/namespaces/inkscape" preserveAspectRatio="xMidYMid meet" xmlns:myscada="http://www.myscada.org" viewBox="0 0 1920 898" height="898" inkscape:voditka="{&quot;voditkoHorValues&quot;:[],&quot;voditkoVerValues&quot;:[]}" xmlns="http://www.w3.org/2000/svg">
<style id="mySCADAFontCSSs" xml:space="preserve">
@font-face{font-family:&apos;Consolas&apos;;src:url(&apos;Fonts/consola.ttf&apos;);}@font-face{font-family:&apos;Ubuntu&apos;;src:url(&apos;Fonts/Ubuntu-R.ttf&apos;);}@font-face{font-family:&apos;Consolas#B&apos;;src:url(&apos;Fonts/consolab.ttf&apos;);}@font-face{font-family:&apos;Roboto#B&apos;;src:url(&apos;Fonts/Roboto-Bold.ttf&apos;);}@font-face{font-family:&apos;Consolas#BI&apos;;src:url(&apos;Fonts/consolaz.ttf&apos;);}@font-face{font-family:&apos;Segoe UI#B&apos;;src:url(&apos;Fonts/segoeuib.ttf&apos;);}@font-face{font-family:&apos;Microsoft Sans Serif&apos;;src:url(&apos;Fonts/micross.ttf&apos;);}@font-face{font-family:&apos;Exo 2&apos;;src:url(&apos;Fonts/Exo2-Regular.ttf&apos;);}@font-face{font-family:&apos;Segoe UI#BI&apos;;src:url(&apos;Fonts/segoeuiz.ttf&apos;);}@font-face{font-family:&apos;Segoe UI&apos;;src:url(&apos;Fonts/segoeui.ttf&apos;);}@font-face{font-family:&apos;Segoe UI#I&apos;;src:url(&apos;Fonts/segoeuii.ttf&apos;);}@font-face{font-family:&apos;Ubuntu#BI&apos;;src:url(&apos;Fonts/Ubuntu-Bold.ttf&apos;);}@font-face{font-family:&apos;Exo 2#B&apos;;src:url(&apos;Fonts/Exo2-Bold.ttf&apos;);}@font-face{font-family:&apos;Roboto&apos;;src:url(&apos;Fonts/Roboto-Regular.ttf&apos;);}@font-face{font-family:&apos;Ubuntu#B&apos;;src:url(&apos;Fonts/Ubuntu-B.ttf&apos;);}@font-face{font-family:&apos;Consolas#I&apos;;src:url(&apos;Fonts/consolai.ttf&apos;);}@font-face{font-family:&apos;Ubuntu#I&apos;;src:url(&apos;Fonts/Ubuntu-RI.ttf&apos;);}</style>
<defs/>
<rect x="0" width="1920" y="0" height="898" id="pozadiNoSeL" style="fill:#ffffff;stoke:#ffffff;"/>
<image xmlns:xlink="http://www.w3.org/1999/xlink" id="pozadi2NoSeL" style="fill:#ffffff;stoke:#ffffff;" mySCADA_Background_stretch="YES" width="1920" xlink:show="embed" xlink:type="simple" preserveAspectRatio="none meet" bgImage="D:\Van2_Scada\Van2Scada_V1\data\every\images\_cables+-+Copy.png" height="898" x="0" y="0" xlink:href="data/every/images/_cables+-+Copy.png" xlink:actuate="onLoad"/>
<style type="text/css" xml:space="preserve">
* {    -webkit-touch-callout: none;    -webkit-user-select: none; /* Disable selection/Copy of UIWebView */        -ms-user-select: none;    user-select: none;    -moz-user-select: none;}</style>
<g inkscape:groupmode="layer" id="layer0" style="display:inline;" inkscape:layerlabel="Background">
<g inkscape:label="{&quot;attr&quot;:&quot;open&quot;,&quot;command&quot;:&quot;&quot;,&quot;newWindow&quot;:&quot;&quot;,&quot;target&quot;:&quot;-1&quot;,&quot;lockEnable&quot;:&quot;No&quot;,&quot;openData&quot;:{&quot;type&quot;:&quot;html&quot;,&quot;screen&quot;:&quot;external&quot;,&quot;newWindow&quot;:{&quot;location&quot;:&quot;def&quot;,&quot;scale&quot;:95,&quot;resizable&quot;:true,&quot;sizeType&quot;:&quot;scaled&quot;,&quot;modal&quot;:false,&quot;topBar&quot;:true,&quot;closeButton&quot;:true,&quot;titleColor&quot;:&quot;#999999&quot;,&quot;textColor&quot;:&quot;#FFFFFF&quot;,&quot;title&quot;:&quot;&quot;,&quot;titleTrans&quot;:{}},&quot;target&quot;:-1,&quot;lockEnable&quot;:false,&quot;htmlCode&quot;:&quot;https://www.balluff.com/en-us/products/BCC0EKP&quot;,&quot;textScale&quot;:100,&quot;zoom&quot;:&quot;automatic&quot;},&quot;modal&quot;:false,&quot;topBar&quot;:false,&quot;closeButton&quot;:false,&quot;resize&quot;:false,&quot;titleColor&quot;:&quot;#1C648C&quot;,&quot;textColor&quot;:&quot;#FFFFFF&quot;,&quot;title&quot;:&quot;&quot;,&quot;titleTrans&quot;:{}}" id="g0015">
<rect x="1310.7363651844635" y="341.8275405511459" width="126.95950849502333" style="stroke-linejoin:miter;stroke-dasharray:none;stroke-width:1;fill:#ffffff;stroke:#ff6600;fill-opacity:1.0;stroke-linecap:butt;" rx="33.27100997075854" id="rect0001" height="28.96022528601725" ry="33.27100997075854"/>
<text x="1098.2781456953644" y="359.20529801324506" id="text0008" style="font-weight:normal;font-size:32pt;font-family:&apos;Segoe UI&apos;;font-style:normal;fill:#3333ff;stroke:none;" transform="matrix(0.3800031840801239 0 0 0.3800032138824463 927.0209193060873 225.7021550880903)">
BCC0EKP</text>
</g>
<g inkscape:label="{&quot;attr&quot;:&quot;open&quot;,&quot;command&quot;:&quot;&quot;,&quot;newWindow&quot;:&quot;&quot;,&quot;target&quot;:&quot;-1&quot;,&quot;lockEnable&quot;:&quot;No&quot;,&quot;openData&quot;:{&quot;type&quot;:&quot;html&quot;,&quot;screen&quot;:&quot;external&quot;,&quot;newWindow&quot;:{&quot;location&quot;:&quot;def&quot;,&quot;scale&quot;:95,&quot;resizable&quot;:true,&quot;sizeType&quot;:&quot;scaled&quot;,&quot;modal&quot;:false,&quot;topBar&quot;:true,&quot;closeButton&quot;:true,&quot;titleColor&quot;:&quot;#999999&quot;,&quot;textColor&quot;:&quot;#FFFFFF&quot;,&quot;title&quot;:&quot;&quot;,&quot;titleTrans&quot;:{}},&quot;target&quot;:-1,&quot;lockEnable&quot;:false,&quot;htmlCode&quot;:&quot;https://www.balluff.com/en-us/products/BAE011E&quot;,&quot;textScale&quot;:100,&quot;zoom&quot;:&quot;automatic&quot;},&quot;modal&quot;:false,&quot;topBar&quot;:false,&quot;closeButton&quot;:false,&quot;resize&quot;:false,&quot;titleColor&quot;:&quot;#1C648C&quot;,&quot;textColor&quot;:&quot;#FFFFFF&quot;,&quot;title&quot;:&quot;&quot;,&quot;titleTrans&quot;:{}}" id="g0016">
<rect x="939.0691784401349" y="902.1912565411515" width="216.7183999782551" style="stroke-linejoin:miter;stroke-dasharray:none;stroke-width:1;fill:#ffffff;stroke:#ff6600;fill-opacity:1.0;stroke-linecap:butt;" rx="33.27100997075854" id="rect0002" height="49.43476738893162" ry="33.27100997075854"/>
<text x="1098.2781456953644" y="359.20529801324506" id="text0009" style="font-weight:normal;font-size:32pt;font-family:&apos;Segoe UI&apos;;font-style:normal;fill:#3333ff;stroke:none;" transform="matrix(0.6040273308753967 0 0 0.6040273308753967 333.8348748404219 717.2629687772783)">
BAE011E</text>
</g>
<g inkscape:label="{&quot;attr&quot;:&quot;open&quot;,&quot;command&quot;:&quot;&quot;,&quot;newWindow&quot;:&quot;&quot;,&quot;target&quot;:&quot;-1&quot;,&quot;lockEnable&quot;:&quot;No&quot;,&quot;openData&quot;:{&quot;type&quot;:&quot;html&quot;,&quot;screen&quot;:&quot;external&quot;,&quot;newWindow&quot;:{&quot;location&quot;:&quot;def&quot;,&quot;scale&quot;:95,&quot;resizable&quot;:true,&quot;sizeType&quot;:&quot;scaled&quot;,&quot;modal&quot;:false,&quot;topBar&quot;:true,&quot;closeButton&quot;:true,&quot;titleColor&quot;:&quot;#999999&quot;,&quot;textColor&quot;:&quot;#FFFFFF&quot;,&quot;title&quot;:&quot;&quot;,&quot;titleTrans&quot;:{}},&quot;target&quot;:-1,&quot;lockEnable&quot;:false,&quot;htmlCode&quot;:&quot;https://www.balluff.com/en-us/products/BCC0EJ4&quot;,&quot;textScale&quot;:100,&quot;zoom&quot;:&quot;automatic&quot;},&quot;modal&quot;:false,&quot;topBar&quot;:false,&quot;closeButton&quot;:false,&quot;resize&quot;:false,&quot;titleColor&quot;:&quot;#1C648C&quot;,&quot;textColor&quot;:&quot;#FFFFFF&quot;,&quot;title&quot;:&quot;&quot;,&quot;titleTrans&quot;:{}}" id="g0017">
<rect x="1298.5927507855295" y="287.26029465320613" width="126.95950652676277" style="stroke-linejoin:miter;stroke-dasharray:none;stroke-width:1;fill:#ffffff;stroke:#ff6600;fill-opacity:1.0;stroke-linecap:butt;" rx="33.27100997075854" id="rect0003" height="28.960224001732342" ry="33.27100997075854"/>
<text x="1098.2781456953644" y="359.20529801324506" id="text0010" style="font-weight:normal;font-size:32pt;font-family:&apos;Segoe UI&apos;;font-style:normal;fill:#3333ff;stroke:none;" transform="matrix(0.3800031542778015 0 0 0.3800031542778015 914.8773023274474 171.13497171542716)">
BCC0EJ4</text>
</g>
<g inkscape:label="{&quot;attr&quot;:&quot;open&quot;,&quot;command&quot;:&quot;&quot;,&quot;newWindow&quot;:&quot;&quot;,&quot;target&quot;:&quot;-1&quot;,&quot;lockEnable&quot;:&quot;No&quot;,&quot;openData&quot;:{&quot;type&quot;:&quot;html&quot;,&quot;screen&quot;:&quot;external&quot;,&quot;newWindow&quot;:{&quot;location&quot;:&quot;def&quot;,&quot;scale&quot;:95,&quot;resizable&quot;:true,&quot;sizeType&quot;:&quot;scaled&quot;,&quot;modal&quot;:false,&quot;topBar&quot;:true,&quot;closeButton&quot;:true,&quot;titleColor&quot;:&quot;#999999&quot;,&quot;textColor&quot;:&quot;#FFFFFF&quot;,&quot;title&quot;:&quot;&quot;,&quot;titleTrans&quot;:{}},&quot;target&quot;:-1,&quot;lockEnable&quot;:false,&quot;htmlCode&quot;:&quot;https://www.balluff.com/en-us/products/BCC0ELW&quot;,&quot;textScale&quot;:100,&quot;zoom&quot;:&quot;automatic&quot;},&quot;modal&quot;:false,&quot;topBar&quot;:false,&quot;closeButton&quot;:false,&quot;resize&quot;:false,&quot;titleColor&quot;:&quot;#1C648C&quot;,&quot;textColor&quot;:&quot;#FFFFFF&quot;,&quot;title&quot;:&quot;&quot;,&quot;titleTrans&quot;:{}}" id="g0018">
<rect x="1298.5927870401474" y="253.14271971523544" width="126.95950652676271" style="stroke-linejoin:miter;stroke-dasharray:none;stroke-width:1;fill:#ffffff;stroke:#ff6600;fill-opacity:1.0;stroke-linecap:butt;" rx="33.27100997075854" id="rect0004" height="28.960224001732342" ry="33.27100997075854"/>
<text x="1098.2781456953644" y="359.20529801324506" id="text0011" style="font-weight:normal;font-size:32pt;font-family:&apos;Segoe UI&apos;;font-style:normal;fill:#3333ff;stroke:none;" transform="matrix(0.3800031542778015 0 0 0.3800031542778015 914.8773633626037 138.61731729648184)">
BCC0ELW</text>
</g>
<g inkscape:label="{&quot;attr&quot;:&quot;open&quot;,&quot;command&quot;:&quot;&quot;,&quot;newWindow&quot;:&quot;&quot;,&quot;target&quot;:&quot;-1&quot;,&quot;lockEnable&quot;:&quot;No&quot;,&quot;openData&quot;:{&quot;type&quot;:&quot;html&quot;,&quot;screen&quot;:&quot;external&quot;,&quot;newWindow&quot;:{&quot;location&quot;:&quot;def&quot;,&quot;scale&quot;:95,&quot;resizable&quot;:true,&quot;sizeType&quot;:&quot;scaled&quot;,&quot;modal&quot;:false,&quot;topBar&quot;:true,&quot;closeButton&quot;:true,&quot;titleColor&quot;:&quot;#999999&quot;,&quot;textColor&quot;:&quot;#FFFFFF&quot;,&quot;title&quot;:&quot;&quot;,&quot;titleTrans&quot;:{}},&quot;target&quot;:-1,&quot;lockEnable&quot;:false,&quot;htmlCode&quot;:&quot;https://www.balluff.com/en-us/products/BCC0J2W&quot;,&quot;textScale&quot;:100,&quot;zoom&quot;:&quot;automatic&quot;},&quot;modal&quot;:false,&quot;topBar&quot;:false,&quot;closeButton&quot;:false,&quot;resize&quot;:false,&quot;titleColor&quot;:&quot;#1C648C&quot;,&quot;textColor&quot;:&quot;#FFFFFF&quot;,&quot;title&quot;:&quot;&quot;,&quot;titleTrans&quot;:{}}" id="g0019">
<rect x="1298.59275312359" y="219.5198285423387" width="126.95950246242677" style="stroke-linejoin:miter;stroke-dasharray:none;stroke-width:1;fill:#ffffff;stroke:#ff6600;fill-opacity:1.0;stroke-linecap:butt;" rx="33.27100997075854" id="rect0005" height="28.960224074934274" ry="33.27100997075854"/>
<text x="1098.2781456953644" y="359.20529801324506" id="text0012" style="font-weight:normal;font-size:32pt;font-family:&apos;Segoe UI&apos;;font-style:normal;fill:#3333ff;stroke:none;" transform="matrix(0.4018845558166504 0 0 0.401884526014328 885.4714739300608 96.31527334554356)">
BCC0J2W</text>
</g>
<g inkscape:label="{&quot;attr&quot;:&quot;open&quot;,&quot;command&quot;:&quot;&quot;,&quot;newWindow&quot;:&quot;&quot;,&quot;target&quot;:&quot;-1&quot;,&quot;lockEnable&quot;:&quot;No&quot;,&quot;openData&quot;:{&quot;type&quot;:&quot;html&quot;,&quot;screen&quot;:&quot;external&quot;,&quot;newWindow&quot;:{&quot;location&quot;:&quot;def&quot;,&quot;scale&quot;:95,&quot;resizable&quot;:true,&quot;sizeType&quot;:&quot;scaled&quot;,&quot;modal&quot;:false,&quot;topBar&quot;:true,&quot;closeButton&quot;:true,&quot;titleColor&quot;:&quot;#999999&quot;,&quot;textColor&quot;:&quot;#FFFFFF&quot;,&quot;title&quot;:&quot;&quot;,&quot;titleTrans&quot;:{}},&quot;target&quot;:-1,&quot;lockEnable&quot;:false,&quot;htmlCode&quot;:&quot;https://www.balluff.com/en-us/products/BCC0HZJ&quot;,&quot;textScale&quot;:100,&quot;zoom&quot;:&quot;automatic&quot;},&quot;modal&quot;:false,&quot;topBar&quot;:false,&quot;closeButton&quot;:false,&quot;resize&quot;:false,&quot;titleColor&quot;:&quot;#1C648C&quot;,&quot;textColor&quot;:&quot;#FFFFFF&quot;,&quot;title&quot;:&quot;&quot;,&quot;titleTrans&quot;:{}}" id="g0020">
<rect x="1298.5927511767068" y="184.29792467713025" width="126.95950859185882" style="stroke-linejoin:miter;stroke-dasharray:none;stroke-width:1;fill:#ffffff;stroke:#ff6600;fill-opacity:1.0;stroke-linecap:butt;" rx="33.27100997075854" height="28.960225692333182" id="rect0006" ry="33.27100997075854"/>
<text x="1098.2781456953644" y="359.20529801324506" id="text0013" style="font-weight:normal;font-size:32pt;font-family:&apos;Segoe UI&apos;;font-style:normal;fill:#3333ff;stroke:none;" transform="matrix(0.3800031542778015 0 0 0.3800031542778015 912.3465349652171 67.80154930705065)">
BCC0HZJ</text>
</g>
<g inkscape:label="{&quot;attr&quot;:&quot;open&quot;,&quot;command&quot;:&quot;&quot;,&quot;newWindow&quot;:&quot;&quot;,&quot;target&quot;:&quot;-1&quot;,&quot;lockEnable&quot;:&quot;No&quot;,&quot;openData&quot;:{&quot;type&quot;:&quot;html&quot;,&quot;screen&quot;:&quot;external&quot;,&quot;newWindow&quot;:{&quot;location&quot;:&quot;def&quot;,&quot;scale&quot;:95,&quot;resizable&quot;:true,&quot;sizeType&quot;:&quot;scaled&quot;,&quot;modal&quot;:false,&quot;topBar&quot;:true,&quot;closeButton&quot;:true,&quot;titleColor&quot;:&quot;#999999&quot;,&quot;textColor&quot;:&quot;#FFFFFF&quot;,&quot;title&quot;:&quot;&quot;,&quot;titleTrans&quot;:{}},&quot;target&quot;:-1,&quot;lockEnable&quot;:false,&quot;htmlCode&quot;:&quot;https://www.balluff.com/en-us/products/BAE012C&quot;,&quot;textScale&quot;:100,&quot;zoom&quot;:&quot;automatic&quot;},&quot;modal&quot;:false,&quot;topBar&quot;:false,&quot;closeButton&quot;:false,&quot;resize&quot;:false,&quot;titleColor&quot;:&quot;#1C648C&quot;,&quot;textColor&quot;:&quot;#FFFFFF&quot;,&quot;title&quot;:&quot;&quot;,&quot;titleTrans&quot;:{}}" id="g0021">
<rect x="956.22571217321" y="90.75492503222924" width="142.0343212766992" style="stroke-linejoin:miter;stroke-dasharray:none;stroke-width:1;fill:#ffffff;stroke:#ff6600;fill-opacity:1.0;stroke-linecap:butt;" rx="33.27100997075854" id="rect0007" height="32.398877646547504" ry="33.27100997075854"/>
<text x="1098.2781456953644" y="359.20529801324506" id="text0014" style="font-weight:normal;font-size:32pt;font-family:&apos;Segoe UI&apos;;font-style:normal;fill:#3333ff;stroke:none;" transform="matrix(0.3958713710308075 0 0 0.3958713412284851 558.6725179518393 -30.219577660276983)">
BAE012C</text>
</g>
<image xmlns:xlink="http://www.w3.org/1999/xlink" id="image0001" width="347.0176941594872" xlink:show="embed" xlink:type="simple" preserveAspectRatio="none meet" height="43.16140474620485" x="13.33125769378429" rx="0" y="122.65188700617318" ry="0" xlink:href="data/every/images/Balluff_InovatingAutomation.png" xlink:actuate="onLoad"/>
<g inkscape:label="{&quot;attr&quot;:&quot;open&quot;,&quot;command&quot;:&quot;&quot;,&quot;newWindow&quot;:&quot;&quot;,&quot;target&quot;:&quot;-1&quot;,&quot;lockEnable&quot;:&quot;No&quot;,&quot;openData&quot;:{&quot;type&quot;:&quot;html&quot;,&quot;screen&quot;:&quot;external&quot;,&quot;newWindow&quot;:{&quot;location&quot;:&quot;def&quot;,&quot;scale&quot;:95,&quot;resizable&quot;:true,&quot;sizeType&quot;:&quot;scaled&quot;,&quot;modal&quot;:false,&quot;topBar&quot;:true,&quot;closeButton&quot;:true,&quot;titleColor&quot;:&quot;#999999&quot;,&quot;textColor&quot;:&quot;#FFFFFF&quot;,&quot;title&quot;:&quot;&quot;,&quot;titleTrans&quot;:{}},&quot;target&quot;:-1,&quot;lockEnable&quot;:false,&quot;htmlCode&quot;:&quot;https://www.balluff.com/en-us/products/BAE011E&quot;,&quot;textScale&quot;:100,&quot;zoom&quot;:&quot;automatic&quot;},&quot;modal&quot;:false,&quot;topBar&quot;:false,&quot;closeButton&quot;:false,&quot;resize&quot;:false,&quot;titleColor&quot;:&quot;#1C648C&quot;,&quot;textColor&quot;:&quot;#FFFFFF&quot;,&quot;title&quot;:&quot;&quot;,&quot;titleTrans&quot;:{}}" id="g0001">
<rect x="956.2257406080893" y="717.8669685458666" width="142.0343212766992" style="stroke-linejoin:miter;stroke-dasharray:none;stroke-width:1;fill:#ffffff;stroke:#ff6600;fill-opacity:1.0;stroke-linecap:butt;" rx="33.27100997075854" ry="33.27100997075854" height="32.398877646547504" id="rect0008"/>
<text x="1098.2781456953644" y="359.20529801324506" id="text0001" style="font-weight:normal;font-size:32pt;font-family:&apos;Segoe UI&apos;;font-style:normal;fill:#3333ff;stroke:none;" transform="matrix(0.3958713710308075 0 0 0.3958713412284851 558.6725641914562 596.8924783156414)">
BAE011E</text>
</g>
<g id="g0002">
<g inkscape:componentSize="169.20822143554688;602.4421997070312;41.324546813964844;59.71136474609375" inkscape:componentData="{&quot;attr&quot;:&quot;Comp&quot;,&quot;name&quot;:&quot;Component Name&quot;,&quot;desc&quot;:&quot;Component Description&quot;,&quot;uniqueID&quot;:&quot;dcdf8412b0&quot;,&quot;MasterID&quot;:&quot;865367405&quot;,&quot;list&quot;:[{&quot;variableName&quot;:&quot;color&quot;,&quot;name&quot;:&quot;Color&quot;,&quot;desc&quot;:&quot;Set color&quot;,&quot;value&quot;:&quot;#7f7f7f&quot;,&quot;valueSub&quot;:&quot;&quot;,&quot;type&quot;:4,&quot;hide&quot;:false,&quot;translate&quot;:false,&quot;translations&quot;:{}}]}" id="Comp49958836">
<g id="g0003">
<style type="text/css" id="style0001" xml:space="preserve">
.st0{fill:#7F7F7F;}</style>
<path inkscape:vypln="color,100" id="49958836XMLID_1_" d="M30.3,43.2c-0.4,0-0.7-0.1-1-0.4C24.7,38.5,22,32.4,22,26.1C22,13.5,32.3,3.2,44.9,3.2  c12.6,0,22.9,10.3,22.9,22.9c0,5.8-2.2,11.4-6.2,15.7c-0.6,0.6-1.5,0.6-2.1,0.1c-0.6-0.6-0.6-1.5-0.1-2.1c3.5-3.7,5.4-8.5,5.4-13.6  c0-11-8.9-19.9-19.9-19.9c-11,0-19.9,8.9-19.9,19.9c0,5.6,2.2,10.7,6.3,14.5c0.6,0.6,0.6,1.5,0.1,2.1C31.1,43.1,30.7,43.2,30.3,43.2  z M44.9,10.9c-8.5,0-15.3,6.9-15.3,15.3c0,3.4,1.1,6.6,3.1,9.3c0.3,0.4,0.7,0.6,1.2,0.6c0.3,0,0.6-0.1,0.9-0.3  c0.7-0.5,0.8-1.4,0.3-2.1c-1.6-2.2-2.5-4.7-2.5-7.4c0-6.8,5.5-12.3,12.3-12.3s12.3,5.5,12.3,12.3c0,2.7-0.9,5.3-2.5,7.4  c-0.5,0.7-0.4,1.6,0.3,2.1c0.3,0.2,0.6,0.3,0.9,0.3c0.5,0,0.9-0.2,1.2-0.6c2-2.7,3.1-5.9,3.1-9.3C60.3,17.7,53.4,10.9,44.9,10.9z   M69.6,96.6c2.2,0,4.2-1.1,5.4-2.9c0,0,0.1-0.1,0.1-0.1c0.3-0.5,6.8-13.4,7.2-26.7c0.2-6.3-0.2-14.8-6.4-16.2c0,0,0,0,0,0l-22.5-4.8  c-0.9-0.2-1.6-1-1.6-2l0-17.5c0-4.2-2.6-6.7-6.7-6.7c-4.2,0-6.8,3.6-6.8,6.9v36.1c0,0,0,0.1,0,0.1c0,0.6-0.2,1.2-0.5,1.5  c-0.1,0.1-0.3,0.2-0.8,0.1c-0.4-0.1-0.7-0.4-1-0.8c-0.6-1-1.2-2.3-1.8-3.8c-1.1-2.6-2.4-5.6-4.4-7.3c-3.1-2.8-7.2-2.7-11.1,0.3  c-1,0.7-1.3,2-0.9,3.1c0.1,0.1,5.2,13.3,11.6,25.4c5,9.6,6.9,12.2,7.6,13c1.2,1.6,3.1,2.4,5.6,2.4L69.6,96.6z M32.1,80  c-5.8-11.1-10.6-23-11.3-24.9c1.9-1.4,4.6-2.5,7.1-0.3c1.5,1.3,2.6,4,3.6,6.3c0.7,1.6,1.3,3,2.1,4.2c0.7,1.1,1.7,1.8,2.8,2.1  c1.3,0.3,2.5,0.1,3.5-0.7c1.1-0.9,1.7-2.4,1.6-4v-36c0-1.7,1.3-3.9,3.8-3.9c2.4,0,3.7,1.3,3.7,3.7l0,17.5c0,2.4,1.7,4.4,4,4.9  l22.4,4.8c3,0.7,4.3,5.1,4,13.2c-0.4,12.1-6.3,24.3-6.9,25.4c-0.7,1.1-2,1.4-2.9,1.4l-26.9,0.1c-1.1,0-2.4-0.1-3.2-1.3  c-0.1-0.1-0.2-0.2-0.3-0.3C38.9,91.9,37.4,90.1,32.1,80z" style="stroke:none;fill:#7f7f7f;" class="st0" transform="matrix(0.3521400988101959 0 0 0.3521400988101959 1409.2587890625 349.5318603515625)"/>
</g>
<g id="g0004" myscada:layerActiveArea="YES"/>
<path d="M0 0L10 0L10 10L0 10L0 0Z" id="49958836positionCheckElementNoSeL" style="display:none" transform="matrix(0.3521400988101959 0 0 0.3521400988101959 1415.385986328125 350.65875244140625)"/>
</g>
</g>
<path style="stroke-linejoin:miter;stroke-dasharray:none;stroke-width:1;fill:#ff9900;stroke:#ff9900;stroke-linecap:butt;" id="line0001" d="M1298.5927511767068 198.77803752329686 L1274.7107438016528 197.8181818181818"/>
<path id="line0002" d="M1298.5927511767068 198.77803752329686 L1274.7107438016528 197.8181818181818" style="stroke-linejoin:miter;stroke-dasharray:none;stroke-width:1;fill:#ff9900;stroke:#ff9900;stroke-linecap:butt;" transform="matrix(1 0 0 1 -0.000000000000017708057242771247 30.648906768395143)"/>
<path id="line0003" d="M1298.5927511767068 198.77803752329686 L1274.7107438016528 197.8181818181818" style="stroke-linejoin:miter;stroke-dasharray:none;stroke-width:1;fill:#ff9900;stroke:#ff9900;stroke-linecap:butt;" transform="matrix(1 0 0 1 -0.00000000000005417888360170764 65.75569664591785)"/>
<path id="line0004" d="M1298.5927511767068 198.77803752329686 L1274.7107438016528 197.8181818181818" style="stroke-linejoin:miter;stroke-dasharray:none;stroke-width:1;fill:#ff9900;stroke:#ff9900;stroke-linecap:butt;" transform="matrix(1 0 0 1 -0.000000000000041744385725905886 100.86249160766604)"/>
<path id="line0005" d="M1298.5927511767068 198.77803752329686 L1274.7107438016528 197.8181818181818" style="stroke-linejoin:miter;stroke-dasharray:none;stroke-width:1;fill:#ff9900;stroke:#ff9900;stroke-linecap:butt;" transform="matrix(1 0 0 1 9.31410026550287 152.84053985412908)"/>
<g style="opacity:0.6;" id="g0005">
<rect x="3.9809435403232425" y="51.848461574172134" width="365.7183224664093" style="stroke-linejoin:miter;stroke-dasharray:none;stroke-width:1;fill:#ffffff;stroke:none;fill-opacity:0.75;stroke-linecap:butt;" rx="33.27100997075854" ry="33.27100997075854" id="rect0009" height="46.77686018149379"/>
<text x="118.36951983298539" y="228.71398747390393" id="text0015" style="font-weight:normal;font-size:10pt;font-family:&apos;Roboto&apos;;font-style:normal;fill:#074763;stroke:none;" transform="matrix(1.6642502546310425 0 0 1.58750581741333 -50.43717200577832 -282.42189583269646)">
Cables</text>
</g>
</g>
<g inkscape:groupmode="layer" myscada:layerActiveArea="YES" id="layer1" inkscape:layerlabel="ActiveArea"/>
</svg>
