<svg contentScriptType="text/ecmascript" zoomAndPan="magnify" xmlns:xlink="http://www.w3.org/1999/xlink" contentStyleType="text/css" version="1.1" width="1920" xmlns:sodipodi="http://sodipodi.sourceforge.net/DTD/sodipodi-0.dtd" xmlns:inkscape="http://www.inkscape.org/namespaces/inkscape" preserveAspectRatio="xMidYMid meet" xmlns:myscada="http://www.myscada.org" viewBox="0 0 1920 991" height="991" inkscape:voditka="{&quot;voditkoHorValues&quot;:[],&quot;voditkoVerValues&quot;:[]}" xmlns="http://www.w3.org/2000/svg">
<style id="mySCADAFontCSSs" xml:space="preserve">
@font-face{font-family:&apos;Ubuntu&apos;;src:url(&apos;Fonts/Ubuntu-R.ttf&apos;);}@font-face{font-family:&apos;Consolas&apos;;src:url(&apos;Fonts/consola.ttf&apos;);}@font-face{font-family:&apos;Consolas#B&apos;;src:url(&apos;Fonts/consolab.ttf&apos;);}@font-face{font-family:&apos;Roboto#B&apos;;src:url(&apos;Fonts/Roboto-Bold.ttf&apos;);}@font-face{font-family:&apos;Consolas#BI&apos;;src:url(&apos;Fonts/consolaz.ttf&apos;);}@font-face{font-family:&apos;Segoe UI#B&apos;;src:url(&apos;Fonts/segoeuib.ttf&apos;);}@font-face{font-family:&apos;Microsoft Sans Serif&apos;;src:url(&apos;Fonts/micross.ttf&apos;);}@font-face{font-family:&apos;Exo 2&apos;;src:url(&apos;Fonts/Exo2-Regular.ttf&apos;);}@font-face{font-family:&apos;Segoe UI#BI&apos;;src:url(&apos;Fonts/segoeuiz.ttf&apos;);}@font-face{font-family:&apos;Segoe UI&apos;;src:url(&apos;Fonts/segoeui.ttf&apos;);}@font-face{font-family:&apos;Segoe UI#I&apos;;src:url(&apos;Fonts/segoeuii.ttf&apos;);}@font-face{font-family:&apos;Ubuntu#BI&apos;;src:url(&apos;Fonts/Ubuntu-Bold.ttf&apos;);}@font-face{font-family:&apos;Roboto&apos;;src:url(&apos;Fonts/Roboto-Regular.ttf&apos;);}@font-face{font-family:&apos;Exo 2#B&apos;;src:url(&apos;Fonts/Exo2-Bold.ttf&apos;);}@font-face{font-family:&apos;Ubuntu#B&apos;;src:url(&apos;Fonts/Ubuntu-B.ttf&apos;);}@font-face{font-family:&apos;Consolas#I&apos;;src:url(&apos;Fonts/consolai.ttf&apos;);}@font-face{font-family:&apos;Ubuntu#I&apos;;src:url(&apos;Fonts/Ubuntu-RI.ttf&apos;);}</style>
<defs/>
<rect x="0" width="1920" y="0" height="991" id="pozadiNoSeL" style="fill:#ffffff;stoke:#ffffff;"/>
<style type="text/css" xml:space="preserve">
* {    -webkit-touch-callout: none;    -webkit-user-select: none; /* Disable selection/Copy of UIWebView */        -ms-user-select: none;    user-select: none;    -moz-user-select: none;}</style>
<g inkscape:groupmode="layer" id="layer0" style="display:inline;" inkscape:layerlabel="Background">
<rect x="-48.419177479013086" y="-3.5773893308256" width="1968.4191774790133" style="stroke-linejoin:miter;stroke-dasharray:none;stroke-width:1;fill:#121212;stroke:none;stroke-linecap:butt;" inkscape:label="{&quot;attr&quot;:&quot;color&quot;,&quot;list&quot;:[{&quot;data&quot;:&quot;0&quot;,&quot;datamax&quot;:&quot;100&quot;,&quot;param&quot;:&quot;#ff00000&quot;,&quot;tag&quot;:&quot;10.0@script&quot;,&quot;alias&quot;:&quot;10.0&quot;,&quot;aliasMin&quot;:&quot;&quot;,&quot;aliasMax&quot;:&quot;&quot;,&quot;plcName&quot;:&quot;&quot;,&quot;type&quot;:&quot;0&quot;}]}" rx="0" ry="0" height="101.74446842651035" id="rect0001"/>
<g inkscape:label="{&quot;attr&quot;:&quot;open&quot;,&quot;command&quot;:&quot;&quot;,&quot;newWindow&quot;:&quot;&quot;,&quot;target&quot;:&quot;1&quot;,&quot;lockEnable&quot;:&quot;No&quot;,&quot;openData&quot;:{&quot;type&quot;:&quot;win&quot;,&quot;screen&quot;:&quot;Homepage&quot;,&quot;target&quot;:1,&quot;lockEnable&quot;:false,&quot;textScale&quot;:100,&quot;zoom&quot;:&quot;automatic&quot;},&quot;modal&quot;:false,&quot;topBar&quot;:false,&quot;closeButton&quot;:false,&quot;resize&quot;:false,&quot;titleColor&quot;:&quot;#1C648C&quot;,&quot;textColor&quot;:&quot;#FFFFFF&quot;,&quot;title&quot;:&quot;&quot;,&quot;titleTrans&quot;:{}}" id="g0001">
<g style="fill:none;" id="g0002">
<path d="M87.9,57.7c4.7-2.1,8-7.9,8-13.8c0-8.7-6.8-15.7-16.6-15.7c-0.3,0-51.9,0-51.9,0l0,13.4c0,0,44.1,0,44.1,0   c2.9,0.1,5.2,2.4,5.2,5.3c0,2.9-2.4,5.3-5.3,5.3c-0.1,0-44,0-44,0l0,37.2c0,0,53.8,0,54.1,0c9.4,0,16.5-7.4,16.5-16.5   C98.1,66.1,93.7,59.9,87.9,57.7z M73.2,76.7c-0.1,0-2.1,0-2.1,0l-25.7,0V65.3c0,0,27,0,27.1,0c0.4,0,0.9,0,1.1,0.1   c2.8,0.4,4.9,2.8,4.9,5.6C78.5,74,76.2,76.5,73.2,76.7z" id="path0001" style="fill:#ffffff;" class="st0" transform="matrix(0.4525088369846344 0 0 0.4525088369846344 47.33956527709961 22.278444290161133)"/>
<path d="M133.39999389648438 28.200000762939453L105.19999694824219 89.5L124.30000305175781 89.5L144.1999969482422 43L158.1999969482422 75.9000015258789L144.1999969482422 75.9000015258789L144.1999969482422 89.5L183.1999969482422 89.5L155 28.200000762939453Z" id="path0002" style="fill:#ffffff;" class="st0" transform="matrix(0.4525088369846344 0 0 0.4525088369846344 47.33956527709961 22.278444290161133)"/>
<path d="M195.8000030517578 28.200000762939453L195.8000030517578 89.5L241.10000610351562 89.5L241.10000610351562 75.80000305175781L213.8000030517578 75.80000305175781L213.8000030517578 28.200000762939453Z" id="path0003" style="fill:#ffffff;" class="st0" transform="matrix(0.4525088369846344 0 0 0.4525088369846344 47.33956527709961 22.278444290161133)"/>
<path d="M256.6000061035156 28.200000762939453L256.6000061035156 89.5L302 89.5L302 75.80000305175781L274.6000061035156 75.80000305175781L274.6000061035156 28.200000762939453Z" id="path0004" style="fill:#ffffff;" class="st0" transform="matrix(0.4525088369846344 0 0 0.4525088369846344 47.33956527709961 22.278444290161133)"/>
<g style="fill:#ffffff;" id="g0003">
<path d="M314.7,28.2v47.3c0,7.8,6.5,13.9,14.8,13.9h32.2c8.3,0,14.8-6.1,14.8-13.9V28.2h-18v45.3c0,1.3-1,2.3-2.3,2.3    H335c-1.3,0-2.3-1-2.3-2.3V28.2H314.7z" id="path0005" class="st0" transform="matrix(0.4525088369846344 0 0 0.4525088369846344 47.33956527709961 22.278444290161133)"/>
</g>
<path d="M394 54.900001525878906L394 89.5L412 89.5L412 67.80000305175781L439.3999938964844 67.80000305175781L439.3999938964844 54.900001525878906Z" id="path0006" style="fill:#ffffff;" class="st0" transform="matrix(0.4525088369846344 0 0 0.4525088369846344 47.33956527709961 22.278444290161133)"/>
<rect x="225.62804601020036" y="35.03920664823513" width="22.263434362211115" style="fill:#ffffff;" rx="0" class="st0" height="6.289872716153077" id="rect0002" ry="0"/>
<path d="M457.70001220703125 54.900001525878906L457.70001220703125 89.5L475.70001220703125 89.5L475.70001220703125 67.80000305175781L504 67.80000305175781L504 54.900001525878906Z" id="path0007" style="fill:#ffffff;" class="st0" transform="matrix(0.4525088369846344 0 0 0.4525088369846344 47.33956527709961 22.278444290161133)"/>
<rect x="254.45285838566463" y="35.03920664823513" width="22.263434362211" style="fill:#ffffff;" rx="0" class="st0" height="6.289872716153077" id="rect0003" ry="0"/>
</g>
<rect x="59.738309452593334" y="-1.0913977199975093" width="216.97798329528229" style="stroke-linejoin:miter;stroke-dasharray:none;stroke-width:1;fill:#ffffff;stroke:none;fill-opacity:0.001;stroke-linecap:butt;" rx="0" height="100.00000000000003" id="rect0004" ry="0"/>
</g>
<g inkscape:label="{&quot;attr&quot;:&quot;open&quot;,&quot;command&quot;:&quot;&quot;,&quot;newWindow&quot;:&quot;&quot;,&quot;target&quot;:&quot;-1&quot;,&quot;lockEnable&quot;:&quot;No&quot;,&quot;openData&quot;:{&quot;type&quot;:&quot;html&quot;,&quot;screen&quot;:&quot;external&quot;,&quot;newWindow&quot;:{&quot;location&quot;:&quot;def&quot;,&quot;scale&quot;:95,&quot;resizable&quot;:true,&quot;sizeType&quot;:&quot;scaled&quot;,&quot;modal&quot;:false,&quot;topBar&quot;:true,&quot;closeButton&quot;:true,&quot;titleColor&quot;:&quot;#666666&quot;,&quot;textColor&quot;:&quot;#FFFFFF&quot;,&quot;title&quot;:&quot;&quot;,&quot;titleTrans&quot;:{}},&quot;target&quot;:-1,&quot;lockEnable&quot;:false,&quot;htmlCode&quot;:&quot;https://www.balluff.com/en-us&quot;,&quot;textScale&quot;:100,&quot;zoom&quot;:&quot;automatic&quot;},&quot;modal&quot;:false,&quot;topBar&quot;:false,&quot;closeButton&quot;:false,&quot;resize&quot;:false,&quot;titleColor&quot;:&quot;#1C648C&quot;,&quot;textColor&quot;:&quot;#FFFFFF&quot;,&quot;title&quot;:&quot;&quot;,&quot;titleTrans&quot;:{}}" id="g0004">
<text x="889.260908281389" y="79.85752448797861" id="text0002" style="font-weight:normal;font-size:16pt;font-family:&apos;Roboto&apos;;font-style:normal;fill:#ffffff;stroke:none;" transform="matrix(1.1039364337921143 0 0 1.1039364337921143 761.3708830514499 -0.09428072274021748)">
WEBSERVER</text>
<g inkscape:componentSize="2321.2158203125;35.190547943115234;90.284912109375;90.28486633300781" id="Comp17539151" inkscape:componentData="{&quot;attr&quot;:&quot;Comp&quot;,&quot;name&quot;:&quot;Component&quot;,&quot;desc&quot;:&quot;CD&quot;,&quot;uniqueID&quot;:&quot;a7f1797dac&quot;,&quot;MasterID&quot;:&quot;990797083&quot;,&quot;list&quot;:[{&quot;variableName&quot;:&quot;color&quot;,&quot;name&quot;:&quot;Color&quot;,&quot;desc&quot;:&quot;&quot;,&quot;value&quot;:&quot;#ffffff&quot;,&quot;valueSub&quot;:&quot;&quot;,&quot;type&quot;:4,&quot;hide&quot;:false,&quot;translate&quot;:false,&quot;translations&quot;:{}}]}">
<path inkscape:vypln="color,100" id="path0008" d="M24 4C12.95 4 4 12.95 4 24s8.95 20 20 20 20-8.95 20-20S35.05 4 24 4zm-2 35.86C14.11 38.88 8 32.16 8 24c0-1.23.15-2.43.42-3.58L18 30v2c0 2.21 1.79 4 4 4v3.86zm13.79-5.07C35.28 33.17 33.78 32 32 32h-2v-6c0-1.1-.9-2-2-2H16v-4h4c1.1 0 2-.9 2-2v-4h4c2.21 0 4-1.79 4-4v-.83c5.86 2.37 10 8.11 10 14.83 0 4.16-1.6 7.94-4.21 10.79z" style="fill:#ffffff;" transform="matrix(1.2594826221466064 0 0 1.2594826221466064 1779.812533442075 2.816348996755556)"/>
<path d="M0 0L10 0L10 10L0 10L0 0Z" id="17539151positionCheckElementNoSeL" style="display:none" transform="matrix(1.2594826221466064 0 0 1.2594826221466064 1779.812533442075 2.816348996755556)"/>
</g>
<rect x="1743.763573782061" y="7.854281966130831" width="132.55289460806944" style="stroke-linejoin:miter;stroke-dasharray:none;stroke-width:0.0;fill:#c0c0c0;stroke:#000000;fill-opacity:0.0;stroke-linecap:butt;" rx="0" ry="0" id="rect0005" height="80.98049363378531"/>
</g>
<g inkscape:label="{&quot;attr&quot;:&quot;open&quot;,&quot;command&quot;:&quot;&quot;,&quot;newWindow&quot;:&quot;&quot;,&quot;target&quot;:&quot;1&quot;,&quot;lockEnable&quot;:&quot;No&quot;,&quot;openData&quot;:{&quot;type&quot;:&quot;win&quot;,&quot;screen&quot;:&quot;Homepage&quot;,&quot;target&quot;:1,&quot;lockEnable&quot;:false,&quot;textScale&quot;:100,&quot;zoom&quot;:&quot;automatic&quot;},&quot;modal&quot;:false,&quot;topBar&quot;:false,&quot;closeButton&quot;:false,&quot;resize&quot;:false,&quot;titleColor&quot;:&quot;#1C648C&quot;,&quot;textColor&quot;:&quot;#FFFFFF&quot;,&quot;title&quot;:&quot;&quot;,&quot;titleTrans&quot;:{}}" id="g0005">
<text x="889.260908281389" y="79.85752448797861" id="text0003" style="font-weight:normal;font-size:16pt;font-family:&apos;Roboto&apos;;font-style:normal;fill:#ffffff;stroke:none;" transform="matrix(1.1039364337921143 0 0 1.1039364337921143 580.3064604440281 -0.09427541792683247)">
DASHBOARD</text>
<rect x="1563.9411871662483" y="-2.281653445894762" width="132.5528946080699" style="stroke-linejoin:miter;stroke-dasharray:none;stroke-width:0.0;fill:#c0c0c0;stroke:#000000;fill-opacity:0.0;stroke-linecap:butt;" rx="0" ry="0" height="80.98049363378533" id="rect0006"/>
<g inkscape:componentSize="2545.9306640625;47.81836700439453;89.415283203125;65.02922821044922" id="Comp96778177" inkscape:componentData="{&quot;attr&quot;:&quot;Comp&quot;,&quot;name&quot;:&quot;Component&quot;,&quot;desc&quot;:&quot;CD&quot;,&quot;uniqueID&quot;:&quot;a7f1797dac&quot;,&quot;MasterID&quot;:&quot;908198147&quot;,&quot;list&quot;:[{&quot;variableName&quot;:&quot;color&quot;,&quot;name&quot;:&quot;Color&quot;,&quot;desc&quot;:&quot;&quot;,&quot;value&quot;:&quot;#FFFFFF&quot;,&quot;valueSub&quot;:&quot;&quot;,&quot;type&quot;:4,&quot;hide&quot;:false,&quot;translate&quot;:false,&quot;translations&quot;:{}}]}">
<path inkscape:vypln="color,100" id="path0009" d="M42 8H6c-2.21 0-4 1.79-4 4v24c0 2.21 1.79 4 4 4h36c2.21 0 3.98-1.79 3.98-4L46 12c0-2.21-1.79-4-4-4zm-4 28H10V12h28v24z" style="fill:#FFFFFF;" transform="matrix(1.1339550018310547 0 0 1.1339550018310547 1601.5182219186374 5.8290338188380755)"/>
<path d="M0 0L10 0L10 10L0 10L0 0Z" id="96778177positionCheckElementNoSeL" style="display:none" transform="matrix(1.1339550018310547 0 0 1.1339550018310547 1601.5182219186374 5.8290338188380755)"/>
</g>
</g>
</g>
<g inkscape:groupmode="layer" myscada:layerActiveArea="YES" id="layer1" inkscape:layerlabel="ActiveArea">
<g id="ActiveArea0001" myscada:ActiveAreaData="{&quot;attr&quot;:&quot;aa&quot;,&quot;id&quot;:1,&quot;type&quot;:0,&quot;value&quot;:&quot;&quot;,&quot;zindex&quot;:1,&quot;x&quot;:0.0,&quot;y&quot;:96.0,&quot;width&quot;:1920.0,&quot;height&quot;:889.26,&quot;parentid&quot;:&quot;&quot;,&quot;zoomable&quot;:false,&quot;openData&quot;:{&quot;type&quot;:&quot;win&quot;,&quot;screen&quot;:&quot;Homepage&quot;,&quot;target&quot;:-1,&quot;lockEnable&quot;:false,&quot;textScale&quot;:100,&quot;zoom&quot;:&quot;automatic&quot;},&quot;transparent&quot;:false,&quot;mapOverlay&quot;:false}" inkscape:componentData="{}" inkscape:componentSize="8.526512829121202E-14;-8.068159103393555;1920.0;897.9934692382812">
<g id="g0009">
<rect x="0.00000000000008526512829121202" y="96.08626322197188" width="1919.9999799082605" style="fill:#e6e6e6;stroke:#000000; stroke-width:1;stroke-dasharray:6,6;stroke-linecap:butt;stroke-linejoin:miter;" rx="0" ry="0" height="897.9934687283657" id="rect0008"/>
</g>
<g inkscape:componentalign="tl" id="g0010">
<text x="101.81818181818176" id="text0005" y="148.65056228637695" style="fill:#000000;stroke:none; font-family:&quot;Ubuntu&quot;; font-size:12pt; font-style:normal; font-weight:normal;" transform="matrix(1 0 0 1 -96.81818389892578 -37.564308166503906)">
Active Area</text>
<text x="101.81818181818176" id="text0006" y="168.65056228637695" style="fill:#000000;stroke:none; font-family:&quot;Ubuntu&quot;; font-size:11pt; font-style:normal; font-weight:normal;" transform="matrix(1 0 0 1 -96.81818389892578 -37.564308166503906)">
View: Homepage</text>
</g>
<g inkscape:componentalign="cc" id="g0011">
<text x="917.1286564434253" id="text0007" y="248.26761967650233" style="fill:#000000;stroke:none; font-family:&quot;Ubuntu&quot;; font-size:24pt; font-style:normal; font-weight:normal;" transform="matrix(1 0 0 1 35.51132583618164 307.9039001464844)">
1</text>
</g>
</g>
</g>
</svg>
