<svg contentScriptType="text/ecmascript" zoomAndPan="magnify" xmlns:xlink="http://www.w3.org/1999/xlink" contentStyleType="text/css" id="prefix_id_Layer_1" style="enable-background:new 0 0 100 100;" version="1.1" width="66.09999084472656" xml:space="preserve" xmlns:sodipodi="http://sodipodi.sourceforge.net/DTD/sodipodi-0.dtd" xmlns:inkscape="http://www.inkscape.org/namespaces/inkscape" preserveAspectRatio="xMidYMid meet" xmlns:myscada="http://www.myscada.org" viewBox="0 0 66.09999084472656 94.49999237060547" inkscape:voditka="{&quot;voditkoHorValues&quot;:[],&quot;voditkoVerValues&quot;:[]}" height="94.49999237060547" xmlns="http://www.w3.org/2000/svg" inkscape:componentData="{&quot;attr&quot;:&quot;Comp&quot;,&quot;name&quot;:&quot;Component Name&quot;,&quot;desc&quot;:&quot;Component Description&quot;,&quot;uniqueID&quot;:&quot;dcdf8412b0&quot;,&quot;MasterID&quot;:&quot;865367405&quot;,&quot;list&quot;:[{&quot;variableName&quot;:&quot;color&quot;,&quot;name&quot;:&quot;Color&quot;,&quot;desc&quot;:&quot;Set color&quot;,&quot;value&quot;:&quot;#7F7F7F&quot;,&quot;valueSub&quot;:&quot;&quot;,&quot;type&quot;:4,&quot;hide&quot;:false,&quot;translate&quot;:false,&quot;translations&quot;:{}}]}" x="0px" y="0px">
<defs/>
<g inkscape:groupmode="layer" inkscape:layerlabel="Background" id="layer0">
<style type="text/css" xml:space="preserve">
.st0{fill:#7F7F7F;}</style>
<path inkscape:vypln="color,100" id="prefix_id_XMLID_1_" d="M30.3,43.2c-0.4,0-0.7-0.1-1-0.4C24.7,38.5,22,32.4,22,26.1C22,13.5,32.3,3.2,44.9,3.2  c12.6,0,22.9,10.3,22.9,22.9c0,5.8-2.2,11.4-6.2,15.7c-0.6,0.6-1.5,0.6-2.1,0.1c-0.6-0.6-0.6-1.5-0.1-2.1c3.5-3.7,5.4-8.5,5.4-13.6  c0-11-8.9-19.9-19.9-19.9c-11,0-19.9,8.9-19.9,19.9c0,5.6,2.2,10.7,6.3,14.5c0.6,0.6,0.6,1.5,0.1,2.1C31.1,43.1,30.7,43.2,30.3,43.2  z M44.9,10.9c-8.5,0-15.3,6.9-15.3,15.3c0,3.4,1.1,6.6,3.1,9.3c0.3,0.4,0.7,0.6,1.2,0.6c0.3,0,0.6-0.1,0.9-0.3  c0.7-0.5,0.8-1.4,0.3-2.1c-1.6-2.2-2.5-4.7-2.5-7.4c0-6.8,5.5-12.3,12.3-12.3s12.3,5.5,12.3,12.3c0,2.7-0.9,5.3-2.5,7.4  c-0.5,0.7-0.4,1.6,0.3,2.1c0.3,0.2,0.6,0.3,0.9,0.3c0.5,0,0.9-0.2,1.2-0.6c2-2.7,3.1-5.9,3.1-9.3C60.3,17.7,53.4,10.9,44.9,10.9z   M69.6,96.6c2.2,0,4.2-1.1,5.4-2.9c0,0,0.1-0.1,0.1-0.1c0.3-0.5,6.8-13.4,7.2-26.7c0.2-6.3-0.2-14.8-6.4-16.2c0,0,0,0,0,0l-22.5-4.8  c-0.9-0.2-1.6-1-1.6-2l0-17.5c0-4.2-2.6-6.7-6.7-6.7c-4.2,0-6.8,3.6-6.8,6.9v36.1c0,0,0,0.1,0,0.1c0,0.6-0.2,1.2-0.5,1.5  c-0.1,0.1-0.3,0.2-0.8,0.1c-0.4-0.1-0.7-0.4-1-0.8c-0.6-1-1.2-2.3-1.8-3.8c-1.1-2.6-2.4-5.6-4.4-7.3c-3.1-2.8-7.2-2.7-11.1,0.3  c-1,0.7-1.3,2-0.9,3.1c0.1,0.1,5.2,13.3,11.6,25.4c5,9.6,6.9,12.2,7.6,13c1.2,1.6,3.1,2.4,5.6,2.4L69.6,96.6z M32.1,80  c-5.8-11.1-10.6-23-11.3-24.9c1.9-1.4,4.6-2.5,7.1-0.3c1.5,1.3,2.6,4,3.6,6.3c0.7,1.6,1.3,3,2.1,4.2c0.7,1.1,1.7,1.8,2.8,2.1  c1.3,0.3,2.5,0.1,3.5-0.7c1.1-0.9,1.7-2.4,1.6-4v-36c0-1.7,1.3-3.9,3.8-3.9c2.4,0,3.7,1.3,3.7,3.7l0,17.5c0,2.4,1.7,4.4,4,4.9  l22.4,4.8c3,0.7,4.3,5.1,4,13.2c-0.4,12.1-6.3,24.3-6.9,25.4c-0.7,1.1-2,1.4-2.9,1.4l-26.9,0.1c-1.1,0-2.4-0.1-3.2-1.3  c-0.1-0.1-0.2-0.2-0.3-0.3C38.9,91.9,37.4,90.1,32.1,80z" style="stroke:none;fill:#7F7F7F;" class="st0" transform="matrix(1 0 0 1 -17.39999771118164 -3.200000047683716)"/>
</g>
<g inkscape:groupmode="layer" myscada:layerActiveArea="YES" id="layer1" inkscape:layerlabel="ActiveArea"/>
</svg>
