<svg contentScriptType="text/ecmascript" zoomAndPan="magnify" xmlns:xlink="http://www.w3.org/1999/xlink" contentStyleType="text/css" version="1.1" width="640" xmlns:sodipodi="http://sodipodi.sourceforge.net/DTD/sodipodi-0.dtd" inkscape:textFontSize="fsize/elementScale" xmlns:inkscape="http://www.inkscape.org/namespaces/inkscape" preserveAspectRatio="xMidYMid meet" xmlns:myscada="http://www.myscada.org" viewBox="0 0 640 480" height="480" inkscape:voditka="{&quot;voditkoHorValues&quot;:[],&quot;voditkoVerValues&quot;:[]}" xmlns="http://www.w3.org/2000/svg" inkscape:componentData="{&quot;attr&quot;:&quot;Comp&quot;,&quot;name&quot;:&quot;Component Name&quot;,&quot;desc&quot;:&quot;Component Description&quot;,&quot;uniqueID&quot;:&quot;fdbb758103&quot;,&quot;MasterID&quot;:&quot;870411723&quot;,&quot;list&quot;:[]}">
<defs/>
<g inkscape:groupmode="layer" id="layer0" style="display:inline;" inkscape:layerlabel="Background">
<g id="Comp46191970" inkscape:componentSize="269.0;95.0;99.0;41.0" inkscape:compOnTouch="{&quot;visibility&quot;:0,&quot;fill&quot;:&quot;#FF3300&quot;,&quot;stroke&quot;:&quot;&quot;}">
<g id="Comp46191970_layer0">
<g id="46191970g0002">
<path style="fill:#D1D3D4;" d="M146,75c0,11.046-8.954,20-20,20H67c-11.046,0-20-8.954-20-20v-1c0-11.046,8.954-20,20-20h59   c11.046,0,20,8.954,20,20V75z" transform="matrix(1 0 0 1 222 41)"/>
<ellipse rx="15.75" ry="15.75" style="fill:#808285;" cx="289.521" cy="115.5"/>
<text style="text-anchor:middle;font-size:17.1476;font-family:&apos;Ubuntu&apos;;fill:#FFFFFF;" id="46191970text0002" transform="matrix(1 0 0 1 334.36498260498047 120.86329650878906)">
OFF</text>
</g>
<g style="visibility:visible;" id="46191970g0001">
<path id="46191970path0001" d="M146,75c0,11.046-8.954,20-20,20H67c-11.046,0-20-8.954-20-20v-1c0-11.046,8.954-20,20-20h59   c11.046,0,20,8.954,20,20V75z" style="fill:#2A3D4F;" transform="matrix(1 0 0 1 222.00000381469727 41)"/>
<ellipse rx="15.75" ry="15.75" id="46191970ellipse0001" style="fill:#3399FF;" cx="346.5210016082977" cy="115.50000050737347"/>
<text style="text-anchor:middle;font-size:17.1476;font-family:&apos;Ubuntu&apos;;fill:#3399FF;" id="46191970text0001" transform="matrix(1 0 0 1 297.2358932495117 120.86329650878906)">
ON</text>
</g>
</g>
<g myscada:layerActiveArea="YES" id="Comp46191970_layer1"/>
<path d="M0 0L10 0L10 10L0 10L0 0Z" id="46191970positionCheckElementNoSeL" style="display:none" transform="matrix(1 0 0 1 269 95)"/>
</g>
</g>
<g inkscape:groupmode="layer" myscada:layerActiveArea="YES" id="layer1" inkscape:layerlabel="ActiveArea"/>
</svg>
